<svg width="68" height="32" viewBox="0 0 68 32" fill="none" xmlns="http://www.w3.org/2000/svg">
<mask id="path-1-inside-1_901_2254" fill="white">
<path d="M67.3216 29.4322L67.3067 29.3652L67.2878 29.2333L67.2035 28.7214C67.1465 28.3839 67.0895 28.0464 67.0303 27.7201C66.913 27.0619 66.7955 26.4328 66.6845 25.8283C66.4569 24.6181 66.2254 23.5411 66.005 22.6352C65.574 20.802 65.1848 19.7227 64.9594 19.7476C64.7341 19.7726 64.7214 20.9406 64.8456 22.7825C64.9158 23.705 65.008 24.8008 65.1724 26.0159L65.4257 27.9184C65.4571 28.1576 65.4939 28.3979 65.5307 28.6382C64.1321 26.8974 60.5941 22.9943 52.1493 14.1755L48.8741 10.7675L47.0908 8.94416L46.1471 8.01045L45.6763 7.538L45.488 7.34901C45.4111 7.28126 45.3256 7.20014 45.2465 7.14359C45.0865 7.02438 44.9196 6.91523 44.7467 6.81675C44.6655 6.76173 44.5771 6.71862 44.4841 6.68866C44.3842 6.67241 44.2828 6.66782 44.1817 6.67494C43.9841 6.69498 43.7911 6.75114 43.6119 6.84081C43.4207 6.94123 43.2396 7.06123 43.0715 7.19894L42.8213 7.40528L42.6836 7.52921C42.3228 7.86492 41.986 8.19377 41.685 8.5414C41.057 9.22565 40.4582 9.93319 39.8691 10.6485C38.6888 12.0903 37.5387 13.579 36.3928 15.1034C36.1452 15.4384 35.8975 15.7733 35.6259 16.1152L35.6136 16.1768C35.6136 16.1768 35.5756 16.1692 35.5539 16.1649L35.5213 16.1584L35.3632 16.0162L34.8469 15.5172L33.7885 14.4499C32.4175 13.0524 31.0651 11.6179 29.7171 10.19C28.3691 8.76219 27.0396 7.32639 25.6781 5.96575C25.3351 5.61777 25.002 5.24847 24.6402 4.93754L24.3642 4.67863C24.2098 4.53753 24.0474 4.40595 23.8778 4.28458C23.7303 4.15858 23.5478 4.08351 23.3556 4.06979C23.1657 4.02879 22.9678 4.04165 22.7832 4.10701C22.594 4.17248 22.413 4.26157 22.2444 4.37227L22.0054 4.5226L21.8513 4.6433C21.6503 4.80122 21.4656 4.96239 21.2832 5.11235C20.9246 5.43686 20.5889 5.7601 20.2718 6.07539C18.9823 7.38479 17.8189 8.71351 16.6711 9.96383C16.39 10.2688 16.1033 10.5727 15.8276 10.8788L15.4513 11.2638C15.3951 11.3276 15.329 11.3814 15.2558 11.4228C15.1736 11.4085 15.0952 11.377 15.0256 11.3303L14.8325 11.2219L14.581 11.0669C14.2463 10.8565 13.9131 10.6386 13.5813 10.4133C10.9559 8.61994 8.63355 6.89291 6.70126 5.47663C4.76897 4.06036 3.18785 2.89467 2.09535 2.11182C1.55633 1.65942 0.964627 1.27734 0.333487 0.974142C0.774191 1.52223 1.27742 2.01363 1.83255 2.43795C2.84404 3.31529 4.33553 4.56211 6.19114 6.07956C8.04675 7.59702 10.2968 9.40282 12.9054 11.3093C13.2316 11.5432 13.5676 11.785 13.9221 12.0187L14.1867 12.1938L14.3276 12.2802L14.5348 12.403C14.7967 12.5882 15.107 12.6886 15.4264 12.6916C15.5798 12.6745 15.7264 12.6152 15.8505 12.5199C15.9859 12.4303 16.1138 12.3292 16.2329 12.2176C16.3771 12.0892 16.434 12.0306 16.5171 11.954L16.7478 11.7321C17.0399 11.4293 17.3385 11.122 17.6425 10.8157C18.825 9.58977 20.0208 8.29664 21.3012 7.06113C21.6227 6.75253 21.9485 6.45059 22.2763 6.16656C22.4457 6.02563 22.6139 5.8903 22.7799 5.76617L22.9055 5.67474L22.9568 5.64422L23.0386 5.6023C23.0653 5.58671 23.0964 5.58141 23.1264 5.58738C23.1563 5.59334 23.183 5.61018 23.2016 5.63481L23.5188 5.94267C23.8489 6.27059 24.1756 6.61531 24.5023 6.96004C25.8082 8.34453 27.1092 9.80961 28.4344 11.2387C29.7596 12.6678 31.0856 14.1495 32.4542 15.5873L33.4941 16.6625L34.0385 17.1905L34.1748 17.3283L34.4196 17.546C34.5893 17.7012 34.768 17.8457 34.9547 17.9789C35.1021 18.104 35.2751 18.1934 35.4612 18.2405C35.6472 18.2877 35.8417 18.2915 36.0303 18.2517C36.2054 18.2047 36.3642 18.107 36.4876 17.9702C36.6336 17.799 36.771 17.6204 36.8995 17.435L37.8711 16.1612C39.0268 14.6446 40.1571 13.1986 41.3556 11.807C41.9413 11.1085 42.5291 10.4278 43.1254 9.78966C43.4251 9.47672 43.7248 9.16378 44.021 8.89673L44.1303 8.80205L45.537 10.2474L47.304 12.0675L50.5792 15.4755C58.9902 24.2934 62.7238 28.0375 64.4022 29.5371L62.7643 29.2511C61.5012 29.04 60.3598 28.8705 59.3955 28.748C57.4646 28.5143 56.2475 28.4695 56.2028 28.6936C56.1581 28.9176 57.3004 29.3376 59.172 29.8682C60.1084 30.1307 61.2275 30.4122 62.4749 30.7018L64.4384 31.1401L65.2643 31.3048C65.4306 31.3314 65.6 31.3318 65.7669 31.3061C66.0987 31.2732 66.414 31.1367 66.6703 30.9151C66.9266 30.6935 67.1117 30.3972 67.2008 30.0662C67.2409 29.9029 67.2536 29.7341 67.2382 29.567L67.3216 29.4322Z"/>
</mask>
<path d="M67.3216 29.4322L67.3067 29.3652L67.2878 29.2333L67.2035 28.7214C67.1465 28.3839 67.0895 28.0464 67.0303 27.7201C66.913 27.0619 66.7955 26.4328 66.6845 25.8283C66.4569 24.6181 66.2254 23.5411 66.005 22.6352C65.574 20.802 65.1848 19.7227 64.9594 19.7476C64.7341 19.7726 64.7214 20.9406 64.8456 22.7825C64.9158 23.705 65.008 24.8008 65.1724 26.0159L65.4257 27.9184C65.4571 28.1576 65.4939 28.3979 65.5307 28.6382C64.1321 26.8974 60.5941 22.9943 52.1493 14.1755L48.8741 10.7675L47.0908 8.94416L46.1471 8.01045L45.6763 7.538L45.488 7.34901C45.4111 7.28126 45.3256 7.20014 45.2465 7.14359C45.0865 7.02438 44.9196 6.91523 44.7467 6.81675C44.6655 6.76173 44.5771 6.71862 44.4841 6.68866C44.3842 6.67241 44.2828 6.66782 44.1817 6.67494C43.9841 6.69498 43.7911 6.75114 43.6119 6.84081C43.4207 6.94123 43.2396 7.06123 43.0715 7.19894L42.8213 7.40528L42.6836 7.52921C42.3228 7.86492 41.986 8.19377 41.685 8.5414C41.057 9.22565 40.4582 9.93319 39.8691 10.6485C38.6888 12.0903 37.5387 13.579 36.3928 15.1034C36.1452 15.4384 35.8975 15.7733 35.6259 16.1152L35.6136 16.1768C35.6136 16.1768 35.5756 16.1692 35.5539 16.1649L35.5213 16.1584L35.3632 16.0162L34.8469 15.5172L33.7885 14.4499C32.4175 13.0524 31.0651 11.6179 29.7171 10.19C28.3691 8.76219 27.0396 7.32639 25.6781 5.96575C25.3351 5.61777 25.002 5.24847 24.6402 4.93754L24.3642 4.67863C24.2098 4.53753 24.0474 4.40595 23.8778 4.28458C23.7303 4.15858 23.5478 4.08351 23.3556 4.06979C23.1657 4.02879 22.9678 4.04165 22.7832 4.10701C22.594 4.17248 22.413 4.26157 22.2444 4.37227L22.0054 4.5226L21.8513 4.6433C21.6503 4.80122 21.4656 4.96239 21.2832 5.11235C20.9246 5.43686 20.5889 5.7601 20.2718 6.07539C18.9823 7.38479 17.8189 8.71351 16.6711 9.96383C16.39 10.2688 16.1033 10.5727 15.8276 10.8788L15.4513 11.2638C15.3951 11.3276 15.329 11.3814 15.2558 11.4228C15.1736 11.4085 15.0952 11.377 15.0256 11.3303L14.8325 11.2219L14.581 11.0669C14.2463 10.8565 13.9131 10.6386 13.5813 10.4133C10.9559 8.61994 8.63355 6.89291 6.70126 5.47663C4.76897 4.06036 3.18785 2.89467 2.09535 2.11182C1.55633 1.65942 0.964627 1.27734 0.333487 0.974142C0.774191 1.52223 1.27742 2.01363 1.83255 2.43795C2.84404 3.31529 4.33553 4.56211 6.19114 6.07956C8.04675 7.59702 10.2968 9.40282 12.9054 11.3093C13.2316 11.5432 13.5676 11.785 13.9221 12.0187L14.1867 12.1938L14.3276 12.2802L14.5348 12.403C14.7967 12.5882 15.107 12.6886 15.4264 12.6916C15.5798 12.6745 15.7264 12.6152 15.8505 12.5199C15.9859 12.4303 16.1138 12.3292 16.2329 12.2176C16.3771 12.0892 16.434 12.0306 16.5171 11.954L16.7478 11.7321C17.0399 11.4293 17.3385 11.122 17.6425 10.8157C18.825 9.58977 20.0208 8.29664 21.3012 7.06113C21.6227 6.75253 21.9485 6.45059 22.2763 6.16656C22.4457 6.02563 22.6139 5.8903 22.7799 5.76617L22.9055 5.67474L22.9568 5.64422L23.0386 5.6023C23.0653 5.58671 23.0964 5.58141 23.1264 5.58738C23.1563 5.59334 23.183 5.61018 23.2016 5.63481L23.5188 5.94267C23.8489 6.27059 24.1756 6.61531 24.5023 6.96004C25.8082 8.34453 27.1092 9.80961 28.4344 11.2387C29.7596 12.6678 31.0856 14.1495 32.4542 15.5873L33.4941 16.6625L34.0385 17.1905L34.1748 17.3283L34.4196 17.546C34.5893 17.7012 34.768 17.8457 34.9547 17.9789C35.1021 18.104 35.2751 18.1934 35.4612 18.2405C35.6472 18.2877 35.8417 18.2915 36.0303 18.2517C36.2054 18.2047 36.3642 18.107 36.4876 17.9702C36.6336 17.799 36.771 17.6204 36.8995 17.435L37.8711 16.1612C39.0268 14.6446 40.1571 13.1986 41.3556 11.807C41.9413 11.1085 42.5291 10.4278 43.1254 9.78966C43.4251 9.47672 43.7248 9.16378 44.021 8.89673L44.1303 8.80205L45.537 10.2474L47.304 12.0675L50.5792 15.4755C58.9902 24.2934 62.7238 28.0375 64.4022 29.5371L62.7643 29.2511C61.5012 29.04 60.3598 28.8705 59.3955 28.748C57.4646 28.5143 56.2475 28.4695 56.2028 28.6936C56.1581 28.9176 57.3004 29.3376 59.172 29.8682C60.1084 30.1307 61.2275 30.4122 62.4749 30.7018L64.4384 31.1401L65.2643 31.3048C65.4306 31.3314 65.6 31.3318 65.7669 31.3061C66.0987 31.2732 66.414 31.1367 66.6703 30.9151C66.9266 30.6935 67.1117 30.3972 67.2008 30.0662C67.2409 29.9029 67.2536 29.7341 67.2382 29.567L67.3216 29.4322Z" fill="url(#paint0_linear_901_2254)" stroke="url(#paint1_linear_901_2254)" stroke-width="2.20006" mask="url(#path-1-inside-1_901_2254)"/>
<defs>
<linearGradient id="paint0_linear_901_2254" x1="6.87836" y1="0.211076" x2="65.6061" y2="31.1173" gradientUnits="userSpaceOnUse">
<stop stop-color="#F99B0D"/>
<stop offset="1" stop-color="#009DB5"/>
</linearGradient>
<linearGradient id="paint1_linear_901_2254" x1="-2.87608" y1="-2.45119" x2="61.4757" y2="31.6498" gradientUnits="userSpaceOnUse">
<stop stop-color="#F99B0D"/>
<stop offset="1" stop-color="#83BF6E"/>
</linearGradient>
</defs>
</svg>
